<mxfile host="app.diagrams.net" modified="2023-10-10T13:21:28.014Z" agent="Mozilla/5.0 (Windows NT 10.0; Win64; x64) AppleWebKit/537.36 (KHTML, like Gecko) Chrome/117.0.0.0 Safari/537.36" etag="eULbKUgIqOTf_vI_JbrX" version="22.0.4" type="github">
  <diagram name="Page-1" id="KMA0ObDMOVHHSHT7rV8r">
    <mxGraphModel dx="3176" dy="2993" grid="1" gridSize="10" guides="1" tooltips="1" connect="1" arrows="1" fold="1" page="1" pageScale="1" pageWidth="827" pageHeight="1169" math="0" shadow="0">
      <root>
        <mxCell id="0" />
        <mxCell id="1" parent="0" />
        <mxCell id="usBn7Ugpy9FqAOzrJp2a-30" value="" style="shape=folder;fontStyle=1;tabWidth=80;tabHeight=30;tabPosition=left;html=1;boundedLbl=1;whiteSpace=wrap;" vertex="1" parent="1">
          <mxGeometry x="60" y="-250" width="750" height="930" as="geometry" />
        </mxCell>
        <mxCell id="usBn7Ugpy9FqAOzrJp2a-31" value="Serveur" style="rounded=0;whiteSpace=wrap;html=1;" vertex="1" parent="1">
          <mxGeometry x="60" y="-250" width="80" height="30" as="geometry" />
        </mxCell>
        <mxCell id="usBn7Ugpy9FqAOzrJp2a-16" value="" style="shape=folder;fontStyle=1;tabWidth=80;tabHeight=30;tabPosition=left;html=1;boundedLbl=1;whiteSpace=wrap;" vertex="1" parent="1">
          <mxGeometry x="40" y="738" width="750" height="360" as="geometry" />
        </mxCell>
        <mxCell id="usBn7Ugpy9FqAOzrJp2a-3" value="&lt;font style=&quot;font-size: 30px;&quot;&gt;Serveur BRi&lt;/font&gt;" style="rounded=0;whiteSpace=wrap;html=1;" vertex="1" parent="1">
          <mxGeometry x="124" y="140" width="580" height="220" as="geometry" />
        </mxCell>
        <mxCell id="usBn7Ugpy9FqAOzrJp2a-4" value="&lt;font style=&quot;font-size: 23px;&quot;&gt;PORT_AMA&lt;/font&gt;" style="rounded=0;whiteSpace=wrap;html=1;" vertex="1" parent="1">
          <mxGeometry x="180" y="480" width="150" height="179" as="geometry" />
        </mxCell>
        <mxCell id="usBn7Ugpy9FqAOzrJp2a-7" style="edgeStyle=orthogonalEdgeStyle;rounded=0;orthogonalLoop=1;jettySize=auto;html=1;entryX=0.75;entryY=1;entryDx=0;entryDy=0;" edge="1" parent="1" source="usBn7Ugpy9FqAOzrJp2a-5" target="usBn7Ugpy9FqAOzrJp2a-3">
          <mxGeometry relative="1" as="geometry" />
        </mxCell>
        <mxCell id="usBn7Ugpy9FqAOzrJp2a-5" value="&lt;font style=&quot;font-size: 23px;&quot;&gt;PORT_PROG&lt;/font&gt;" style="rounded=0;whiteSpace=wrap;html=1;" vertex="1" parent="1">
          <mxGeometry x="480" y="480" width="180" height="179" as="geometry" />
        </mxCell>
        <mxCell id="usBn7Ugpy9FqAOzrJp2a-6" style="edgeStyle=orthogonalEdgeStyle;rounded=0;orthogonalLoop=1;jettySize=auto;html=1;entryX=0.223;entryY=1.015;entryDx=0;entryDy=0;entryPerimeter=0;" edge="1" parent="1" source="usBn7Ugpy9FqAOzrJp2a-4" target="usBn7Ugpy9FqAOzrJp2a-3">
          <mxGeometry relative="1" as="geometry" />
        </mxCell>
        <mxCell id="usBn7Ugpy9FqAOzrJp2a-9" value="&lt;font style=&quot;font-size: 15px;&quot;&gt;ServicesBRi&lt;/font&gt;" style="swimlane;whiteSpace=wrap;html=1;swimlaneLine=1;glass=0;strokeWidth=1;swimlaneFillColor=default;" vertex="1" parent="1">
          <mxGeometry x="260" y="778" width="297" height="130" as="geometry" />
        </mxCell>
        <mxCell id="usBn7Ugpy9FqAOzrJp2a-14" value="&lt;span style=&quot;font-size: 15px;&quot;&gt;CertificationBRi&lt;/span&gt;" style="swimlane;whiteSpace=wrap;html=1;swimlaneLine=1;glass=0;strokeWidth=1;swimlaneFillColor=default;" vertex="1" parent="1">
          <mxGeometry x="266.5" y="936" width="297" height="130" as="geometry" />
        </mxCell>
        <mxCell id="usBn7Ugpy9FqAOzrJp2a-17" value="BRi" style="rounded=0;whiteSpace=wrap;html=1;" vertex="1" parent="1">
          <mxGeometry x="40" y="738" width="80" height="30" as="geometry" />
        </mxCell>
        <mxCell id="usBn7Ugpy9FqAOzrJp2a-18" value="" style="shape=folder;fontStyle=1;tabWidth=80;tabHeight=30;tabPosition=left;html=1;boundedLbl=1;whiteSpace=wrap;" vertex="1" parent="1">
          <mxGeometry x="840" y="225" width="750" height="360" as="geometry" />
        </mxCell>
        <mxCell id="usBn7Ugpy9FqAOzrJp2a-19" value="BD" style="rounded=0;whiteSpace=wrap;html=1;" vertex="1" parent="1">
          <mxGeometry x="840" y="225" width="80" height="30" as="geometry" />
        </mxCell>
        <mxCell id="usBn7Ugpy9FqAOzrJp2a-22" value="&lt;font style=&quot;font-size: 15px;&quot;&gt;BD&lt;/font&gt;" style="swimlane;whiteSpace=wrap;html=1;swimlaneLine=1;glass=0;strokeWidth=1;swimlaneFillColor=default;" vertex="1" parent="1">
          <mxGeometry x="924" y="357" width="246" height="130" as="geometry" />
        </mxCell>
        <mxCell id="usBn7Ugpy9FqAOzrJp2a-24" value="«interface»&lt;br&gt;&lt;b&gt;Utilisateur&lt;/b&gt;" style="html=1;whiteSpace=wrap;" vertex="1" parent="1">
          <mxGeometry x="1300" y="377" width="220" height="90" as="geometry" />
        </mxCell>
        <mxCell id="usBn7Ugpy9FqAOzrJp2a-25" value="" style="shape=folder;fontStyle=1;tabWidth=80;tabHeight=30;tabPosition=left;html=1;boundedLbl=1;whiteSpace=wrap;" vertex="1" parent="1">
          <mxGeometry x="840" y="680" width="750" height="360" as="geometry" />
        </mxCell>
        <mxCell id="usBn7Ugpy9FqAOzrJp2a-26" value="Utilitaire" style="rounded=0;whiteSpace=wrap;html=1;" vertex="1" parent="1">
          <mxGeometry x="840" y="680" width="80" height="30" as="geometry" />
        </mxCell>
        <mxCell id="usBn7Ugpy9FqAOzrJp2a-27" value="&lt;font style=&quot;font-size: 15px;&quot;&gt;Authentification&lt;/font&gt;" style="swimlane;whiteSpace=wrap;html=1;swimlaneLine=1;glass=0;strokeWidth=1;swimlaneFillColor=default;" vertex="1" parent="1">
          <mxGeometry x="870" y="740" width="246" height="130" as="geometry" />
        </mxCell>
        <mxCell id="usBn7Ugpy9FqAOzrJp2a-29" value="&lt;font style=&quot;font-size: 15px;&quot;&gt;Inscription&lt;/font&gt;" style="swimlane;whiteSpace=wrap;html=1;swimlaneLine=1;glass=0;strokeWidth=1;swimlaneFillColor=default;" vertex="1" parent="1">
          <mxGeometry x="1260" y="812" width="246" height="130" as="geometry" />
        </mxCell>
        <mxCell id="usBn7Ugpy9FqAOzrJp2a-33" value="&lt;font style=&quot;font-size: 15px;&quot;&gt;ServiceRegistry&lt;/font&gt;" style="swimlane;whiteSpace=wrap;html=1;swimlaneLine=1;glass=0;strokeWidth=1;swimlaneFillColor=default;" vertex="1" parent="1">
          <mxGeometry x="233.5" y="-150" width="350" height="200" as="geometry" />
        </mxCell>
        <mxCell id="usBn7Ugpy9FqAOzrJp2a-35" value="&lt;font style=&quot;font-size: 30px;&quot;&gt;Client&lt;/font&gt;" style="rounded=0;whiteSpace=wrap;html=1;" vertex="1" parent="1">
          <mxGeometry x="550" y="-880" width="640" height="410" as="geometry" />
        </mxCell>
      </root>
    </mxGraphModel>
  </diagram>
</mxfile>
